<?xml version="1.0" standalone="no"?>
<!DOCTYPE svg PUBLIC "-//W3C//DTD SVG 20010904//EN"
 "http://www.w3.org/TR/2001/REC-SVG-20010904/DTD/svg10.dtd">
<svg version="1.0" xmlns="http://www.w3.org/2000/svg"
 width="513.000000pt" height="513.000000pt" viewBox="0 0 513.000000 513.000000"
 preserveAspectRatio="xMidYMid meet">
<metadata>
Created by potrace 1.14, written by Peter Selinger 2001-2017
</metadata>
<g transform="translate(0.000000,513.000000) scale(0.100000,-0.100000)"
fill="#000000" stroke="none">
<path d="M305 5108 c-35 -20 -51 -60 -37 -97 7 -21 93 -112 180 -193 38 -36
59 -48 82 -48 42 0 80 41 80 86 0 29 -14 47 -103 137 -128 130 -152 143 -202
115z"/>
<path d="M915 5108 c-11 -6 -66 -58 -122 -115 -88 -89 -103 -109 -103 -136 0
-18 7 -42 15 -54 17 -25 75 -40 99 -26 22 12 205 192 222 219 25 37 0 107 -41
118 -30 8 -48 7 -70 -6z"/>
<path d="M3695 4911 c-55 -23 -79 -94 -50 -154 41 -86 178 -74 204 18 26 94
-64 173 -154 136z"/>
<path d="M738 4681 c-36 -18 -54 -55 -45 -93 6 -21 191 -216 228 -238 22 -14
74 -1 96 24 15 18 21 35 18 61 -3 30 -20 52 -113 144 -61 59 -119 111 -131
114 -11 2 -35 -3 -53 -12z"/>
<path d="M392 4593 c-111 -111 -132 -138 -132 -170 0 -54 79 -97 125 -68 22
14 161 151 200 197 50 59 15 138 -59 138 -31 0 -47 -11 -134 -97z"/>
<path d="M2570 4657 c-28 -14 -50 -51 -50 -85 0 -14 19 -43 46 -72 50 -53 47
-59 -13 -35 -98 37 -255 70 -428 90 -53 6 -289 7 -340 1 -108 -13 -152 -20
-254 -43 -344 -76 -661 -251 -916 -507 -309 -310 -496 -703 -542 -1136 -14
-130 -7 -381 13 -500 52 -305 175 -591 361 -838 l63 -84 -22 -71 c-12 -40 -23
-74 -23 -77 -1 -3 -9 -30 -18 -61 -33 -106 -46 -210 -42 -329 2 -63 6 -126 10
-140 3 -14 9 -38 12 -55 2 -16 14 -54 25 -85 74 -198 241 -304 658 -418 78
-22 445 -97 515 -106 22 -3 51 -8 65 -11 64 -13 337 -53 480 -69 236 -28 828
-28 1035 -1 17 2 55 7 85 10 126 14 149 17 240 31 136 21 147 23 229 40 40 8
82 19 92 25 22 12 39 41 39 68 0 16 17 30 40 31 3 0 33 9 67 19 59 18 63 18
68 1 8 -26 40 -51 69 -54 41 -4 177 39 203 64 15 14 23 34 23 55 0 29 4 33 33
39 27 6 35 2 52 -18 34 -42 67 -42 200 4 155 54 223 91 284 153 140 142 174
361 83 532 -24 46 -90 134 -145 195 -173 189 -235 318 -235 489 0 136 16 181
196 520 92 175 111 240 107 366 -6 156 -54 272 -157 376 -144 146 -306 189
-553 147 -182 -30 -256 -23 -347 37 -55 37 -145 151 -169 214 -122 330 -399
671 -711 879 -51 34 -69 51 -67 66 3 45 -2 58 -42 101 l-41 44 40 42 c23 22
42 51 44 63 8 48 -24 92 -72 97 -36 4 -50 -3 -89 -42 l-41 -41 -45 41 c-24 22
-49 41 -54 41 -5 0 -15 2 -23 5 -7 3 -24 -1 -38 -8z"/>
<path d="M4431 4638 c-119 -32 -201 -151 -188 -274 10 -95 63 -169 151 -210
128 -59 287 4 344 136 21 49 20 156 -2 202 -24 50 -83 109 -129 132 -44 20
-127 27 -176 14z m137 -193 c29 -35 28 -76 -4 -114 -21 -25 -33 -31 -65 -31
-84 0 -119 92 -59 152 27 26 36 30 68 25 22 -4 46 -17 60 -32z"/>
</g>
</svg>
